<svg aria-hidden="true" style="position: absolute; width: 0; height: 0; overflow: hidden;" version="1.1" xmlns="http://www.w3.org/2000/svg" xmlns:xlink="http://www.w3.org/1999/xlink">
<defs>
<symbol id="icon-check" viewBox="0 0 18 18">
 <path d="M16.229 4.315a1 1 0 0 1-.043 1.413l-8.5 8a1 1 0 0 1-1.393-.02l-4-4a1 1 0 1 1 1.414-1.415l3.315 3.314 7.793-7.335a1 1 0 0 1 1.414.043Z" />
</symbol>
<symbol id="icon-discount" viewBox="0 0 35 32">
<path d="M33.162 22.946l-0.333 0.901-6.134-2.26 0.333-0.901 0.506 0.186 0.006-0.017c-0.215-0.342-0.391-0.894-0.141-1.572 0.415-1.123 1.597-1.633 3.038-1.102s2.009 1.685 1.594 2.809c-0.25 0.678-0.726 0.989-1.146 1.098l-0.006 0.017 2.282 0.841zM28.080 19.71c-0.272 0.738 0.169 1.417 1.138 1.774 0.978 0.36 1.746 0.127 2.019-0.611 0.291-0.789-0.274-1.475-1.132-1.791s-1.734-0.161-2.025 0.628z"></path>
<path d="M30.514 25.327c0.157-0.214 0.467-0.327 0.732-0.133s0.244 0.518 0.087 0.732c-0.168 0.229-0.465 0.34-0.73 0.146s-0.257-0.516-0.089-0.744zM30.16 24.48l-0.568 0.774-3.772-2.757 0.568-0.774 3.772 2.757z"></path>
<path d="M25.85 26.432c-0.792 0.391-1.634 0.836-2.345-0.024-0.571-0.691-0.333-1.609 0.542-2.329 1.165-0.959 2.114-0.829 2.779-0.097l-0.72 0.593c-0.356-0.359-0.799-0.55-1.561 0.077-0.515 0.424-0.524 0.858-0.338 1.084 0.373 0.451 0.833 0.132 1.467-0.177 0.682-0.337 1.552-0.863 2.228-0.046 0.489 0.592 0.357 1.494-0.546 2.238-0.981 0.808-1.884 0.663-2.452 0.076l0.72-0.593c0.282 0.241 0.662 0.414 1.241-0.063 0.445-0.366 0.545-0.733 0.335-0.986-0.303-0.366-0.729-0.063-1.35 0.247z"></path>
<path d="M20.881 29.089c0.188 0.438 0.66 0.886 1.439 0.622 0.892-0.303 1.013-1.194 0.729-2.024s-0.916-1.466-1.816-1.16c-0.779 0.265-0.882 0.898-0.748 1.403l-0.909 0.309c-0.279-1.044 0.251-2.065 1.403-2.456 1.325-0.45 2.507 0.211 2.979 1.595s-0.059 2.627-1.375 3.074c-1.151 0.391-2.156-0.089-2.611-1.054l0.909-0.309z"></path>
<path d="M16.961 26.35c1.46 0.089 2.284 1.156 2.196 2.607s-1.035 2.41-2.495 2.321c-1.46-0.089-2.284-1.156-2.196-2.607s1.035-2.41 2.495-2.321zM16.914 27.135c-0.913-0.056-1.431 0.636-1.489 1.594-0.059 0.967 0.373 1.708 1.285 1.764s1.43-0.627 1.489-1.594c0.058-0.958-0.372-1.708-1.285-1.764z"></path>
<path d="M10.053 29.25l-0.864-0.419 2.044-4.201 0.864 0.419-0.264 0.543 0.016 0.008c0.382-0.221 0.978-0.338 1.702 0.013 0.781 0.379 1.178 1.131 0.71 2.093l-1.412 2.902-0.872-0.423 1.292-2.656c0.276-0.567 0.213-1.045-0.379-1.332-0.666-0.323-1.29-0.128-1.594 0.497l-1.244 2.557z"></path>
<path d="M5.857 25.938c-0.58-0.647-0.662-1.492 0.136-2.205l2.408-2.149 0.647 0.722-2.203 1.967c-0.471 0.42-0.594 0.886-0.154 1.376 0.494 0.552 1.146 0.607 1.664 0.144l2.121-1.894 0.641 0.715-3.485 3.111-0.641-0.715 0.45-0.402-0.012-0.014c-0.438 0.060-1.034-0.058-1.571-0.657z"></path>
<path d="M3.877 20.823l0.362 0.8 2.309-1.040c0.484-0.218 0.436-0.477 0.147-1.029l0.717-0.323c0.121 0.156 0.233 0.337 0.338 0.57 0.317 0.7 0.173 1.226-0.727 1.631l-2.384 1.073 0.279 0.616-0.717 0.323-0.279-0.616-1.342 0.604-0.399-0.883 1.342-0.604-0.362-0.8 0.717-0.323z"></path>
<path d="M1.086 11.211l0.209-0.937 6.381 1.419-0.209 0.937-0.527-0.117-0.004 0.018c0.259 0.31 0.507 0.834 0.35 1.539-0.26 1.169-1.363 1.832-2.863 1.499s-2.217-1.402-1.957-2.571c0.157-0.705 0.587-1.078 0.988-1.241l0.004-0.018-2.374-0.528zM6.556 13.739c0.171-0.768-0.357-1.381-1.366-1.606-1.017-0.226-1.747 0.108-1.918 0.875-0.183 0.821 0.47 1.425 1.362 1.624s1.74-0.072 1.922-0.893z"></path>
<path d="M3.385 8.497c-0.127 0.233-0.418 0.387-0.708 0.23s-0.311-0.481-0.184-0.714c0.135-0.249 0.415-0.399 0.704-0.242s0.323 0.477 0.188 0.726zM3.849 9.29l0.459-0.843 4.107 2.227-0.459 0.843-4.107-2.227z"></path>
<path d="M7.868 6.763c0.734-0.492 1.51-1.043 2.327-0.283 0.656 0.61 0.541 1.551-0.232 2.38-1.029 1.103-1.987 1.098-2.742 0.46l0.636-0.682c0.399 0.309 0.864 0.441 1.538-0.281 0.455-0.488 0.407-0.919 0.193-1.119-0.429-0.398-0.842-0.022-1.431 0.368-0.632 0.423-1.426 1.059-2.202 0.337-0.563-0.523-0.55-1.435 0.249-2.29 0.867-0.929 1.781-0.904 2.42-0.396l-0.636 0.682c-0.312-0.202-0.711-0.324-1.222 0.225-0.393 0.421-0.444 0.798-0.203 1.022 0.348 0.324 0.731-0.032 1.306-0.421z"></path>
<path d="M12.376 3.5c-0.246-0.409-0.774-0.789-1.51-0.421-0.842 0.421-0.842 1.32-0.448 2.104s1.106 1.328 1.957 0.903c0.736-0.368 0.752-1.009 0.551-1.491l0.859-0.429c0.418 0.997 0.031 2.080-1.057 2.623-1.252 0.625-2.512 0.131-3.168-1.177s-0.297-2.611 0.946-3.232c1.088-0.543 2.148-0.204 2.73 0.691l-0.859 0.429z"></path>
<path d="M16.627 5.665c-1.459 0.106-2.418-0.841-2.525-2.291s0.703-2.526 2.162-2.633c1.459-0.106 2.418 0.841 2.525 2.291s-0.703 2.526-2.162 2.633zM16.569 4.881c0.912-0.066 1.333-0.821 1.262-1.779-0.071-0.967-0.598-1.643-1.51-1.577s-1.334 0.812-1.262 1.779c0.071 0.957 0.598 1.643 1.51 1.577z"></path>
<path d="M23.123 1.865l0.912 0.301-1.466 4.436-0.912-0.301 0.189-0.573-0.017-0.006c-0.349 0.27-0.924 0.465-1.688 0.213-0.825-0.272-1.318-0.964-0.982-1.98l1.013-3.064 0.92 0.304-0.927 2.804c-0.198 0.599-0.073 1.064 0.553 1.27 0.703 0.232 1.295-0.044 1.514-0.704l0.892-2.7z"></path>
<path d="M27.728 4.578c0.66 0.565 0.852 1.393 0.155 2.204l-2.104 2.447-0.736-0.631 1.926-2.239c0.411-0.478 0.472-0.956-0.027-1.384-0.562-0.482-1.215-0.452-1.669 0.075l-1.854 2.156-0.729-0.625 3.046-3.542 0.729 0.625-0.393 0.458 0.014 0.012c0.426-0.117 1.032-0.079 1.643 0.445z"></path>
<path d="M30.358 9.346l-0.466-0.744-2.149 1.341c-0.45 0.281-0.368 0.531-0.007 1.039l-0.667 0.416c-0.141-0.139-0.276-0.302-0.412-0.519-0.408-0.651-0.336-1.191 0.501-1.714l2.218-1.384-0.359-0.573 0.667-0.416 0.359 0.573 1.249-0.779 0.515 0.821-1.249 0.779 0.466 0.744-0.667 0.416z"></path>
<path d="M19.746 14.222c-4 0.889-4.933 3.631-5.858 5.929l0.84 0.293 0.422-1.022c0.213 0.076 0.435 0.133 0.595 0.133 4.889 0 6.222-7.556 6.222-7.556-0.444 0.889-3.556 1-5.778 1.444s-3.111 2.333-3.111 3.222 0.778 1.667 0.778 1.667c1.444-4.111 5.889-4.111 5.889-4.111z"></path>
</symbol>
<symbol id="icon-facebook" viewBox="0 0 32 32">
<path d="M19.52 4.64c0.24 0 0.48 0 0.96 0v3.6c-0.24 0-0.72 0-1.2 0s-0.96 0-1.2 0.24c-0.24 0.24-0.24 0.48-0.24 1.040 0 0.48 0 0.8 0 1.28h2.64v3.040h-2.64v13.2h-4.080v-13.28h-2.16v-3.040h2.16v-1.040c0-1.76 0.24-3.040 0.72-3.6 0.72-1.040 2.16-1.52 4.32-1.52 0.24 0.080 0.48 0.080 0.72 0.080z"></path>
</symbol>
<symbol id="icon-instagram" viewBox="0 0 32 32">
<path d="M28.718 10.756c-0.016-1.074-0.215-2.14-0.596-3.145-0.667-1.716-2.024-3.073-3.743-3.737-0.994-0.373-2.044-0.573-3.108-0.596-1.368-0.061-1.801-0.078-5.273-0.078s-3.916 0-5.274 0.078c-1.062 0.023-2.113 0.223-3.106 0.596-1.719 0.664-3.078 2.021-3.743 3.737-0.374 0.992-0.576 2.041-0.596 3.101-0.061 1.367-0.080 1.8-0.080 5.265s0 3.909 0.080 5.265c0.021 1.062 0.222 2.109 0.596 3.104 0.667 1.714 2.024 3.071 3.744 3.735 0.989 0.386 2.040 0.605 3.106 0.639 1.369 0.061 1.803 0.080 5.274 0.080s3.916 0 5.274-0.080c1.062-0.021 2.112-0.221 3.108-0.595 1.719-0.666 3.076-2.022 3.743-3.737 0.374-0.994 0.574-2.041 0.596-3.104 0.061-1.365 0.080-1.798 0.080-5.265-0.003-3.466-0.003-3.906-0.082-5.264zM15.99 22.531c-3.631 0-6.572-2.936-6.572-6.561s2.941-6.561 6.572-6.561c3.628 0 6.572 2.936 6.572 6.561s-2.944 6.561-6.572 6.561zM22.824 10.696c-0.849 0-1.532-0.684-1.532-1.53s0.684-1.53 1.532-1.53c0.846 0 1.531 0.684 1.531 1.53s-0.685 1.53-1.531 1.53z"></path>
<path d="M15.992 19.976c2.211 0 4.004-1.793 4.004-4.004s-1.793-4.004-4.004-4.004c-2.211 0-4.004 1.793-4.004 4.004s1.793 4.004 4.004 4.004z"></path>
</symbol>
<symbol id="icon-logo" viewBox="0 0 32 32">
<path d="M17.488 4.624c-0.463-0.704-1.086-1.289-1.817-1.707-2.011-1.153-4.601-0.951-6.992 0.388-4.439 2.487-7.345 7.161-7.345 12.695 0 7.387 5.347 13.351 12.329 14.48 0.763 0.123 1.543 0.187 2.337 0.187 1.938 0.007 3.857-0.372 5.647-1.113s3.415-1.832 4.779-3.207 2.443-3.008 3.17-4.804c0.728-1.796 1.092-3.718 1.070-5.655-0.031-2.576-1.064-5.737-2.697-8.264-1.627-2.517-4.128-4.811-7.236-4.781-1.517 0.003-2.553 0.837-3.245 1.784v-0.001zM26.361 10.151c-0.557-0.090-1.123-0.104-1.684-0.044l-1.547-2.6-2.291 1.36 1.189 2c-0.498 0.234-0.973 0.513-1.42 0.833-0.008-0.026-0.016-0.052-0.024-0.077-0.356-1.080-1.044-1.967-1.961-2.848l0.005-0.027c0.092-0.431 0.239-0.987 0.459-1.527 0.497-1.221 1.075-1.716 1.653-1.716h0.015c1.721-0.019 3.515 1.303 4.975 3.561 0.227 0.351 0.437 0.712 0.632 1.083l-0.001 0.001zM18.147 14.147c-0.44 0.011-0.892 0.060-1.333 0.156-0.36-0.602-0.842-1.123-1.416-1.527-1.053-0.74-2.496-1.107-4.056-0.524-0.143-0.082-0.287-0.163-0.432-0.241l4.311-4.225-1.867-1.904-5.113 5.012c-1.080-0.313-2.089-0.425-2.996-0.3 1.043-2.094 2.696-3.824 4.74-4.963 1.819-1.019 3.383-0.963 4.361-0.401 0.933 0.535 1.708 1.748 1.513 3.916l-0.060 0.671 0.504 0.447c1.096 0.969 1.552 1.596 1.749 2.195 0.139 0.42 0.184 0.928 0.095 1.689zM14.4 15.487c-1.139 0.953-1.903 2.291-2.347 3.736l-3.965-4.353-1.972 1.797 5.451 5.984c-0.007 1.589 0.197 3.216 0.493 4.687-2.36-0.81-4.407-2.34-5.852-4.373s-2.218-4.469-2.208-6.964c0-1.387 0.385-2.143 0.839-2.473 0.428-0.315 1.368-0.572 3.293 0.139 0.696 0.257 1.501 0.652 2.423 1.225l0.669 0.416 0.688-0.387c0.831-0.467 1.465-0.301 1.952 0.040 0.213 0.149 0.396 0.336 0.536 0.527zM16.753 27.976l9.723-10.716-1.975-1.792-3.909 4.308 0.009-1.352-2.667-0.019-0.031 4.333-3.311 3.649c-0.251-1.361-0.4-2.824-0.352-4.196 0.085-2.34 1.020-4.263 2.403-5.024 0.573-0.316 1.585-0.44 2.385-0.299l1.187 0.207 0.327-1.159c0.171-0.604 0.623-1.251 1.329-1.827 0.717-0.579 1.551-0.996 2.445-1.221 1.068-0.261 1.979-0.125 2.579 0.288 0.524 0.36 1.051 1.096 1.1 2.605v0.024l0.004 0.213c0.013 3.056-1.145 6.001-3.237 8.229s-4.959 3.569-8.009 3.747z"></path>
</symbol>
<symbol id="icon-organic-food" viewBox="0 0 30 32">
<path d="M26.338 17.657c0.128-1.003 0.902-1.522 1.899-1.395s1.615 0.825 1.487 1.828c-0.128 1.003-0.902 1.522-1.899 1.395s-1.615-0.825-1.487-1.828zM26.877 17.725c-0.080 0.627 0.373 1.016 1.032 1.101 0.665 0.085 1.195-0.179 1.276-0.806s-0.367-1.016-1.032-1.101c-0.658-0.084-1.195 0.179-1.276 0.806z"></path>
<path d="M28.761 21.773c-0.038 0.107-0.071 0.183-0.115 0.268l-0.59-0.209 0.004-0.012c0.314-0.566 0.080-1.192-0.57-1.422l-1.555-0.55 0.221-0.626 3.045 1.078-0.221 0.626-0.572-0.202-0.004 0.012c0.324 0.296 0.498 0.639 0.357 1.038z"></path>
<path d="M27.135 24.616l-0.35 0.564-2.556-1.587c-0.789-0.49-0.842-1.185-0.358-1.963 0.49-0.789 1.174-0.968 1.672-0.74l-0.353 0.569c-0.275-0.096-0.578-0.016-0.854 0.429-0.293 0.473-0.229 0.848 0.265 1.154l0.333 0.207 0.007-0.011c-0.114-0.272-0.161-0.651 0.109-1.086 0.427-0.687 1.225-0.906 2.089-0.369 0.87 0.54 1.022 1.349 0.596 2.036-0.27 0.435-0.631 0.561-0.914 0.586l-0.007 0.011 0.322 0.2zM25.444 22.547c-0.283 0.456-0.153 0.917 0.427 1.277s1.051 0.273 1.334-0.183c0.307-0.494 0.093-0.977-0.417-1.293-0.505-0.313-1.037-0.294-1.344 0.2z"></path>
<path d="M24.221 26.6c0.161 0.17 0.384 0.202 0.705-0.103 0.385-0.366 0.414-0.62 0.149-0.944l0.467-0.444c0.404 0.471 0.451 1.098-0.255 1.769-0.518 0.492-1.090 0.661-1.682 0.038l-1.058-1.113c-0.157-0.165-0.276-0.217-0.447-0.020l-0.218-0.229c0.071-0.146 0.14-0.229 0.232-0.316 0.257-0.244 0.463-0.265 0.726-0.080l0.009-0.009c-0.049-0.346 0.081-0.74 0.443-1.084 0.476-0.453 1.031-0.457 1.405-0.063 0.488 0.513 0.26 1.035-0.218 1.707-0.297 0.413-0.473 0.668-0.26 0.892zM23.549 24.544c-0.399 0.379-0.486 0.837-0.125 1.217l0.335 0.353c0.026-0.129 0.161-0.363 0.342-0.622 0.316-0.466 0.381-0.746 0.155-0.984-0.205-0.215-0.446-0.213-0.707 0.036z"></path>
<path d="M21.904 29.31c-0.527 0.288-1.11 0.211-1.464-0.438l-1.071-1.958 0.588-0.321 0.98 1.791c0.209 0.383 0.503 0.539 0.903 0.32 0.449-0.246 0.589-0.675 0.359-1.097l-0.943-1.725 0.582-0.318 1.55 2.834-0.582 0.318-0.2-0.366-0.011 0.006c-0.028 0.304-0.201 0.686-0.689 0.953z"></path>
<path d="M19.867 30.665c0.174-0.057 0.394 0.005 0.464 0.222s-0.073 0.389-0.247 0.446c-0.186 0.060-0.398 0.003-0.468-0.214s0.065-0.393 0.252-0.454zM20.011 30.046l-0.631 0.205-0.997-3.072 0.631-0.205 0.997 3.072z"></path>
<path d="M16.037 29.698c0.067 0.323 0.324 0.691 0.889 0.619 0.646-0.083 0.851-0.67 0.774-1.271s-0.417-1.119-1.069-1.036c-0.564 0.072-0.722 0.487-0.701 0.848l-0.658 0.084c-0.044-0.746 0.456-1.365 1.29-1.471 0.959-0.123 1.668 0.488 1.796 1.491s-0.404 1.772-1.357 1.894c-0.834 0.107-1.447-0.357-1.622-1.073l0.658-0.084z"></path>
<path d="M9.633 30.68c0.405 0.146 0.575 0.153 0.684-0.197l0.105-0.338-0.567-0.177 0.162-0.519 0.567 0.177 0.8-2.564 0.64 0.2-0.8 2.564 0.441 0.137-0.162 0.519-0.441-0.137-0.122 0.392c-0.203 0.652-0.553 0.794-1.059 0.636-0.157-0.049-0.29-0.11-0.409-0.174l0.162-0.519z"></path>
<path d="M9.585 26.16c0.886 0.488 1.084 1.399 0.598 2.279s-1.361 1.198-2.247 0.71c-0.886-0.489-1.084-1.399-0.598-2.279s1.361-1.198 2.247-0.71zM9.322 26.636c-0.553-0.305-1.082-0.027-1.403 0.554-0.324 0.587-0.274 1.177 0.279 1.482s1.079 0.032 1.403-0.554c0.321-0.581 0.274-1.177-0.28-1.482z"></path>
<path d="M7.236 24.438c0.733 0.697 0.694 1.628 0.002 2.356s-1.62 0.815-2.353 0.118-0.694-1.628-0.002-2.356c0.692-0.729 1.62-0.815 2.353-0.118zM6.862 24.832c-0.458-0.435-1.040-0.3-1.498 0.181-0.462 0.486-0.563 1.069-0.105 1.505s1.036 0.304 1.498-0.181c0.457-0.481 0.563-1.070 0.105-1.505z"></path>
<path d="M1.042 23.887l-0.342-0.569 3.874-2.327 0.342 0.569-0.32 0.192 0.007 0.011c0.278 0.032 0.652 0.176 0.909 0.604 0.426 0.71 0.189 1.567-0.721 2.114s-1.779 0.353-2.205-0.357c-0.257-0.428-0.219-0.819-0.096-1.093l-0.006-0.011-1.441 0.866zM4.987 22.55c-0.28-0.466-0.837-0.522-1.449-0.154-0.618 0.371-0.825 0.886-0.545 1.352 0.299 0.498 0.914 0.491 1.456 0.165s0.838-0.864 0.538-1.363z"></path>
<path d="M3.714 16.661c0.039 1.011-0.638 1.65-1.643 1.689s-1.729-0.547-1.768-1.557c-0.039-1.011 0.638-1.65 1.643-1.689s1.729 0.547 1.768 1.557zM3.171 16.682c-0.024-0.632-0.536-0.941-1.199-0.915-0.67 0.026-1.149 0.373-1.125 1.005s0.53 0.941 1.199 0.915c0.663-0.026 1.149-0.373 1.125-1.005z"></path>
<path d="M0.652 12.938c0.020-0.112 0.041-0.192 0.070-0.283l0.616 0.11-0.002 0.012c-0.218 0.61 0.115 1.189 0.793 1.311l1.624 0.29-0.117 0.653-3.18-0.569 0.117-0.653 0.597 0.107 0.002-0.012c-0.368-0.239-0.595-0.55-0.521-0.966z"></path>
<path d="M1.786 9.883l0.254-0.613 2.78 1.151c0.858 0.356 1.023 1.033 0.672 1.879-0.356 0.858-1.001 1.145-1.53 1.001l0.256-0.619c0.287 0.050 0.573-0.078 0.773-0.562 0.213-0.514 0.088-0.873-0.449-1.096l-0.362-0.15-0.005 0.012c0.157 0.25 0.265 0.616 0.069 1.089-0.31 0.748-1.062 1.093-2.002 0.703-0.946-0.392-1.228-1.165-0.918-1.913 0.196-0.473 0.532-0.656 0.807-0.726l0.005-0.012-0.35-0.145zM3.79 11.65c0.206-0.496 0.002-0.93-0.629-1.191s-1.081-0.099-1.287 0.398c-0.223 0.537 0.067 0.979 0.622 1.208 0.549 0.227 1.071 0.122 1.294-0.415z"></path>
<path d="M4.34 7.447c-0.186-0.142-0.411-0.138-0.679 0.214-0.322 0.422-0.31 0.678 0.003 0.956l-0.391 0.513c-0.474-0.4-0.62-1.012-0.030-1.787 0.433-0.568 0.971-0.826 1.655-0.305l1.222 0.931c0.181 0.138 0.307 0.17 0.444-0.051l0.251 0.191c-0.047 0.155-0.102 0.248-0.178 0.349-0.214 0.282-0.415 0.336-0.704 0.195l-0.008 0.010c0.104 0.333 0.038 0.744-0.265 1.141-0.398 0.523-0.945 0.615-1.378 0.286-0.563-0.429-0.421-0.98-0.057-1.72 0.227-0.455 0.361-0.734 0.114-0.922zM5.331 9.37c0.333-0.438 0.347-0.904-0.071-1.222l-0.387-0.295c-0.005 0.131-0.101 0.384-0.239 0.668-0.238 0.51-0.257 0.797 0.004 0.996 0.236 0.18 0.474 0.139 0.693-0.148z"></path>
<path d="M6.149 4.422c0.472-0.371 1.060-0.39 1.517 0.192l1.378 1.755-0.527 0.414-1.26-1.606c-0.269-0.343-0.585-0.449-0.943-0.168-0.403 0.316-0.47 0.763-0.174 1.141l1.214 1.546-0.522 0.41-1.994-2.541 0.522-0.41 0.258 0.328 0.010-0.008c-0.022-0.304 0.086-0.71 0.523-1.053z"></path>
<path d="M7.968 2.728c-0.163 0.084-0.389 0.059-0.494-0.143s0.008-0.396 0.171-0.48c0.174-0.090 0.392-0.068 0.497 0.134s0 0.399-0.174 0.489zM7.926 3.361l0.589-0.305 1.486 2.868-0.589 0.305-1.486-2.868z"></path>
<path d="M11.907 3.051c-0.119-0.308-0.433-0.629-0.978-0.466-0.624 0.187-0.73 0.8-0.556 1.381s0.594 1.036 1.224 0.847c0.545-0.163 0.632-0.599 0.553-0.951l0.636-0.191c0.166 0.729-0.227 1.421-1.033 1.662-0.926 0.278-1.725-0.209-2.016-1.178s0.11-1.814 1.030-2.090c0.805-0.241 1.486 0.115 1.776 0.794l-0.636 0.191z"></path>
<path d="M18.039 1.036c-0.423-0.078-0.592-0.057-0.643 0.306l-0.049 0.351 0.588 0.082-0.075 0.538-0.588-0.082-0.371 2.661-0.664-0.093 0.371-2.661-0.457-0.064 0.075-0.538 0.457 0.064 0.057-0.407c0.094-0.676 0.416-0.874 0.941-0.8 0.163 0.023 0.304 0.062 0.432 0.105l-0.075 0.538z"></path>
<path d="M18.835 5.482c-0.953-0.337-1.297-1.203-0.962-2.151s1.147-1.404 2.101-1.067c0.953 0.337 1.297 1.203 0.962 2.151s-1.147 1.404-2.101 1.067zM19.016 4.97c0.596 0.211 1.072-0.15 1.294-0.776 0.224-0.632 0.078-1.206-0.518-1.417s-1.070 0.144-1.294 0.776c-0.221 0.626-0.078 1.206 0.518 1.417z"></path>
<path d="M21.395 6.767c-0.837-0.568-0.951-1.493-0.386-2.324s1.465-1.068 2.302-0.501c0.837 0.568 0.951 1.493 0.386 2.324s-1.465 1.068-2.302 0.501zM21.7 6.317c0.523 0.355 1.075 0.126 1.448-0.423 0.376-0.554 0.381-1.147-0.142-1.502s-1.072-0.131-1.448 0.423c-0.373 0.549-0.381 1.147 0.142 1.502z"></path>
<path d="M27.663 6.358l0.428 0.507-3.451 2.918-0.428-0.507 0.285-0.241-0.008-0.010c-0.279 0.012-0.671-0.070-0.994-0.451-0.535-0.632-0.438-1.517 0.373-2.202s1.699-0.634 2.234-0.001c0.322 0.381 0.348 0.774 0.27 1.063l0.008 0.010 1.284-1.085zM23.983 8.311c0.351 0.415 0.91 0.381 1.455-0.080 0.55-0.465 0.672-1.007 0.321-1.422-0.375-0.444-0.981-0.338-1.464 0.070s-0.688 0.987-0.313 1.432z"></path>
<path d="M16.988 14.617c-3.556 0.79-4.385 3.228-5.207 5.27l0.747 0.261 0.375-0.909c0.19 0.067 0.387 0.119 0.529 0.119 4.346 0 5.531-6.716 5.531-6.716-0.395 0.79-3.16 0.889-5.136 1.284s-2.765 2.074-2.765 2.864c0 0.79 0.691 1.481 0.691 1.481 1.284-3.654 5.235-3.654 5.235-3.654z"></path>
</symbol>
<symbol id="icon-shopping-cart" viewBox="0 0 32 32">
<path d="M4.8 1.6c-0.424 0-0.831 0.169-1.131 0.469s-0.469 0.707-0.469 1.131c0 0.424 0.169 0.831 0.469 1.131s0.707 0.469 1.131 0.469h1.952l0.488 1.955c0.005 0.023 0.010 0.045 0.016 0.067l2.173 8.688-1.429 1.427c-2.016 2.016-0.589 5.462 2.262 5.462h13.737c0.424 0 0.831-0.169 1.131-0.469s0.469-0.707 0.469-1.131-0.169-0.831-0.469-1.131c-0.3-0.3-0.707-0.469-1.131-0.469h-13.738l1.6-1.6h10.537c0.297-0 0.588-0.083 0.841-0.239s0.457-0.38 0.59-0.646l4.8-9.6c0.122-0.244 0.18-0.515 0.167-0.787s-0.094-0.537-0.237-0.769c-0.143-0.232-0.343-0.423-0.581-0.556s-0.506-0.203-0.779-0.203h-17.152l-0.496-1.989c-0.087-0.346-0.286-0.653-0.568-0.873s-0.628-0.339-0.984-0.339h-3.2zM25.6 26.4c0 0.637-0.253 1.247-0.703 1.697s-1.060 0.703-1.697 0.703c-0.636 0-1.247-0.253-1.697-0.703s-0.703-1.060-0.703-1.697c0-0.636 0.253-1.247 0.703-1.697s1.060-0.703 1.697-0.703c0.637 0 1.247 0.253 1.697 0.703s0.703 1.061 0.703 1.697zM10.4 28.8c0.636 0 1.247-0.253 1.697-0.703s0.703-1.060 0.703-1.697c0-0.636-0.253-1.247-0.703-1.697s-1.061-0.703-1.697-0.703-1.247 0.253-1.697 0.703c-0.45 0.45-0.703 1.061-0.703 1.697s0.253 1.247 0.703 1.697 1.061 0.703 1.697 0.703z"></path>
</symbol>
<symbol id="icon-youtube" viewBox="0 0 32 32">
<path d="M24.24 6c-1.36-0.080-4.16-0.16-8.4-0.16h-0.56c-4.080 0-6.8 0.080-8.16 0.24-1.84 0.16-3.12 0.64-3.84 1.28-0.64 0.56-1.12 1.6-1.28 2.96-0.080 0.88-0.16 2.72-0.16 5.52v0.4c0 2.64 0.080 4.48 0.24 5.36 0.24 1.28 0.64 2.24 1.44 2.8 0.8 0.64 2.16 1.040 4.080 1.2 1.36 0.080 4.16 0.16 8.4 0.16h0.56c4.080 0 6.8-0.080 8.16-0.24 1.84-0.16 3.12-0.64 3.84-1.28 0.64-0.56 1.12-1.6 1.28-2.96 0.080-0.88 0.16-2.72 0.16-5.52v-0.4c0-2.64-0.080-4.48-0.24-5.36-0.24-1.28-0.64-2.24-1.44-2.8-0.8-0.64-2.16-1.040-4.080-1.2zM21.12 15.84l-8.8 5.28v-10.56l8.8 5.28z"></path>
</symbol>
</defs>
<symbol id="icon-caret-left" viewBox="0 0 32 32">
<path d="M12.627 16.707c-0.181-0.181-0.292-0.431-0.292-0.707s0.112-0.526 0.292-0.707v0l5.333-5.333c0.183-0.196 0.443-0.318 0.732-0.318 0.552 0 1 0.448 1 1 0 0.289-0.122 0.549-0.318 0.731l-0.001 0.001-4.627 4.627 4.627 4.627c0.196 0.183 0.318 0.443 0.318 0.732 0 0.552-0.448 1-1 1-0.289 0-0.549-0.122-0.731-0.318l-0.001-0.001-5.333-5.333z"></path>
</symbol>
<symbol id="icon-caret-right" viewBox="0 0 32 32">
<path d="M19.373 15.293c0.181 0.181 0.292 0.431 0.292 0.707s-0.112 0.526-0.292 0.707v0l-5.333 5.333c-0.183 0.196-0.443 0.318-0.732 0.318-0.552 0-1-0.448-1-1 0-0.289 0.122-0.549 0.318-0.731l0.001-0.001 4.627-4.627-4.627-4.627c-0.166-0.178-0.268-0.418-0.268-0.682 0-0.552 0.448-1 1-1 0.264 0 0.504 0.102 0.682 0.269l-0.001-0.001 5.333 5.333z"></path>
</symbol>
<symbol id="icon-close" viewBox="0 0 32 32">
<path d="M25 9.093l-2.093-2.093-6.907 6.907-6.907-6.907-2.093 2.093 6.907 6.907-6.907 6.907 2.093 2.093 6.907-6.907 6.907 6.907 2.093-2.093-6.907-6.907 6.907-6.907z"></path>
</symbol>
<symbol id="icon-mag-search" viewBox="0 0 32 32">
<path d="M20.667 18.667h-1.054l-0.373-0.36c1.3-1.502 2.093-3.475 2.093-5.633 0-0.002 0-0.005 0-0.007v0c0-0 0-0.001 0-0.002 0-4.787-3.88-8.667-8.667-8.667s-8.667 3.88-8.667 8.667c0 4.787 3.88 8.667 8.667 8.667 0.001 0 0.001 0 0.002 0h-0c0.002 0 0.004 0 0.006 0 2.158 0 4.131-0.792 5.644-2.102l-0.011 0.009 0.36 0.373v1.054l6.666 6.653 1.987-1.987-6.653-6.666zM12.667 18.667c-0.002 0-0.005 0-0.008 0-3.309 0-5.992-2.683-5.992-5.992 0-0.003 0-0.006 0-0.008v0c0-0.002 0-0.005 0-0.008 0-3.309 2.683-5.992 5.992-5.992 0.003 0 0.006 0 0.008 0h-0c0.002 0 0.005 0 0.008 0 3.309 0 5.992 2.683 5.992 5.992 0 0.003 0 0.006 0 0.008v-0c0 0.002 0 0.005 0 0.008 0 3.309-2.683 5.992-5.992 5.992-0.003 0-0.006 0-0.008 0h0z"></path>
</symbol>
</defs>
</svg>
